<svg xmlns="http://www.w3.org/2000/svg" viewBox="0 0 120 160" fill="currentColor">
  <!-- Left horn -->
  <path d="M56 78 C52 62, 44 44, 32 28 C24 16, 16 8, 6 2 C10 6, 18 16, 26 28 C36 44, 46 62, 50 78 Z"/>
  <!-- Right horn -->
  <path d="M64 78 C68 62, 76 44, 88 28 C96 16, 104 8, 114 2 C110 6, 102 16, 94 28 C84 44, 74 62, 70 78 Z"/>
  <!-- Left face half -->
  <path d="M53 90 C50 104, 50 118, 53 130 C55 137, 57.5 144, 60 150 C58.5 142, 55 134, 54 126 C52 116, 52 104, 55 90 Z"/>
  <!-- Right face half -->
  <path d="M67 90 C70 104, 70 118, 67 130 C65 137, 62.5 144, 60 150 C61.5 142, 65 134, 66 126 C68 116, 68 104, 65 90 Z"/>
</svg>
